# xmcd
#
# Track frame offsets:
#   150
#   24300
#   47325
#   66300
#   88125
#   107025
#   125625
#   147600
#   163050
#   185700
#   207525
#   226200
#   245250
#   265800
#   286575
#   308400
#
# Disc length: 4393 seconds
#
# Revision: 0
# Processed by: cddbd v1.5.1PL2 Copyright (c) Steve Scherf et al.
# Submitted via: GXTranscoder 2.0.1939
#
DISCID=e3112710
DTITLE=Celine Dion - Romantic Ballads
DYEAR=1900
DGENRE=Country
TTITLE0=O holy night
TTITLE1=Je crois toi
TTITLE2=Immortality
TTITLE3=Think twice
TTITLE4=On the change pas
TTITLE5=Threat her like a lady
TTITLE6=Why on why
TTITLE7=Another year has gone by
TTITLE8=Just walk away
TTITLE9=The power of love
TTITLE10=En attenndaut ses pas
TTITLE11=When I need you
TTITLE12=Make you happy
TTITLE13=Because you loved me
TTITLE14=Tous les blues sont ectrits pour toi
TTITLE15=My hart will go on
EXTD=
EXTT0=
EXTT1=
EXTT2=
EXTT3=
EXTT4=
EXTT5=
EXTT6=
EXTT7=
EXTT8=
EXTT9=
EXTT10=
EXTT11=
EXTT12=
EXTT13=
EXTT14=
EXTT15=
PLAYORDER=
